<svg width="2048" height="2048" viewBox="0 0 2048 2048" fill="none" xmlns="http://www.w3.org/2000/svg">
<path d="M668.014 783.371C751.074 782.172 835.668 782.998 918.839 783.021C939.134 802.968 962.1 824.346 985.795 840.204L725.044 840.259L725.177 941.087L967.438 941.103C1010.06 941.097 1061.5 939.787 1103.43 941.848L838.27 1284.16L761.741 1382.25C751.106 1395.9 734.36 1416 725.166 1430.01L725.124 1484.97L1267.85 1485C1267.38 1451.68 1267.76 1417.48 1267.73 1384.09L886.473 1384.08C928.647 1328.55 972.653 1273.54 1015.29 1218.26L1071.83 1145.35C1081.74 1132.6 1095.37 1114.26 1105.79 1102.46C1115.92 1087.26 1133.3 1067.17 1144.85 1051.96C1159.14 1033.19 1173.53 1014.5 1188.04 995.899C1196.28 985.278 1206.67 971.195 1215.61 961.474C1229.88 967.638 1255.91 976.354 1270.86 981.335C1232.88 1027.88 1193.55 1080.87 1156.54 1128.76L1005.71 1322.04C1004.22 1323.96 1004.07 1324.65 1003.61 1326.97C1009.91 1327.55 1027.45 1327.02 1034.7 1327.02L1100.15 1327C1174.67 1326.99 1250.59 1326.27 1325 1327.21V1542.12L667.939 1542.2C667.448 1498.77 667.841 1454.43 667.843 1410.94C679.313 1398.22 693.47 1378.48 704.142 1364.56L759.988 1292.56L900.147 1112.28C929.26 1074.24 958.674 1036.43 988.386 998.855C956.24 997.861 921.357 998.661 888.879 998.617L667.893 998.238C668.774 927.268 667.937 854.485 668.014 783.371Z" fill="black"/>
<path d="M1409.04 505.546C1419.97 504.565 1425.43 504.109 1435.78 507.661C1446.32 519.56 1453.96 557.231 1463.92 577.272C1464.8 571.324 1465.76 565.389 1466.79 559.466C1472.3 561.723 1492.02 572.37 1494.23 575.826C1501.82 587.744 1509.78 644.678 1509.59 658.009C1488.19 644.305 1470.67 627.001 1449.89 612.56C1437.67 604.072 1420.22 610.604 1405.37 614.012C1396.18 599.109 1391.05 579.216 1385.32 562.428C1384.63 579.605 1384.2 600.222 1389.02 616.804C1389.36 617.975 1389.72 619.14 1390.03 620.318C1390.83 623.325 1391.39 626.142 1391.35 629.265C1391.19 642.231 1383.3 748.115 1378.73 753.77C1367.85 767.216 1321.7 767.063 1305.46 765.225C1297.57 764.331 1286.74 760.392 1279.2 761.63C1281.57 769.677 1321 778.941 1328.86 780.981C1338.63 783.769 1364.57 784.183 1371.88 789.741C1384.85 799.61 1368.16 857.219 1375.72 864.986C1386.87 863.554 1390.54 844.316 1391.18 835.127C1422.65 854.02 1488.27 907.037 1498.94 941.58C1501.22 948.986 1501.21 957.77 1497.25 964.621C1492.35 973.11 1482.24 977.382 1473.16 979.748C1386.45 1002.35 1181.69 922.405 1104.5 876.948C1043.33 844.996 978.754 804.402 932.686 752.354C921.857 740.427 902.307 705.011 922.681 693.641C967.435 668.665 1039.48 691.278 1085.09 698.63C1061.14 724.257 1072.73 735.115 1097.41 754.211C1135.87 783.961 1181.29 805.451 1226.26 823.298C1235.3 826.887 1249.09 832.535 1258.42 833.831L1258.74 832.881C1256.87 831.127 1238.66 822.989 1235.24 821.268C1188.6 797.793 1126.53 763.127 1096.3 719.618C1114.09 700.384 1149.82 659.924 1171.79 645.936C1176.75 642.777 1212.82 651.602 1223.83 651.854C1244.06 652.315 1257.8 650.798 1278.05 647.114C1264.54 642.642 1236.79 642.991 1221.91 635.761C1213.32 631.591 1212.49 630.844 1209.21 622.353C1211.34 614.221 1213.2 608.588 1220.44 602.158C1243.64 581.542 1294.5 522.677 1319.81 510.311C1324.6 507.969 1400.75 505.794 1409.04 505.546Z" fill="black"/>
</svg>
